<svg id="Label-J" xmlns="http://www.w3.org/2000/svg" width="40" height="40" viewBox="0 0 40 40">
  <defs>
    <style>
      .cls-1 {
        fill: #2196f3;
      }

      .cls-2 {
        fill: #fff;
        fill-rule: evenodd;
      }
    </style>
  </defs>
  <circle id="J" class="cls-1" cx="20" cy="20" r="20"/>
  <path id="J-2" data-name="J" class="cls-2" d="M51.574,261.34a2.923,2.923,0,0,1-.6,1.969,2.014,2.014,0,0,1-1.605.691,2.108,2.108,0,0,1-1.664-.6,2.741,2.741,0,0,1-.527-1.851H43.641a5,5,0,0,0,1.512,3.9,6.037,6.037,0,0,0,4.219,1.377,6.353,6.353,0,0,0,2.965-.679,4.891,4.891,0,0,0,2.033-1.928,5.648,5.648,0,0,0,.721-2.877V249.527H51.574V261.34Z" transform="translate(-30 -238)"/>
</svg>
