<svg id="Label-9" xmlns="http://www.w3.org/2000/svg" width="40" height="40" viewBox="0 0 40 40">
  <defs>
    <style>
      .cls-1 {
        fill: #2196f3;
      }

      .cls-2 {
        fill: #fff;
        fill-rule: evenodd;
      }
    </style>
  </defs>
  <circle id="_9" data-name="9" class="cls-1" cx="20" cy="20" r="20"/>
  <path id="_9-2" data-name="9" class="cls-2" d="M607.291,498.918l-0.75.012v2.824l0.832-.012a8.018,8.018,0,0,0,6.012-2.6,9.871,9.871,0,0,0,2.121-6.7v-1.254a8.722,8.722,0,0,0-.738-3.622,5.557,5.557,0,0,0-2.039-2.425,5.425,5.425,0,0,0-3-.844,5.681,5.681,0,0,0-2.954.779,5.379,5.379,0,0,0-2.045,2.18,6.54,6.54,0,0,0-.732,3.076,6.14,6.14,0,0,0,1.359,4.19,4.576,4.576,0,0,0,3.622,1.552,4.276,4.276,0,0,0,3.093-1.3q-0.363,3.948-4.781,4.148h0Zm0.721-6.334a3.853,3.853,0,0,1-.639-2.291,3.964,3.964,0,0,1,.656-2.338,1.978,1.978,0,0,1,1.676-.932,2.038,2.038,0,0,1,1.758.95,4.658,4.658,0,0,1,.656,2.672v1.394a2.824,2.824,0,0,1-.9,1.02,2.372,2.372,0,0,1-1.412.421A2.078,2.078,0,0,1,608.012,492.584Z" transform="translate(-590 -473)"/>
</svg>
