<svg id="Label-10" xmlns="http://www.w3.org/2000/svg" width="40" height="40" viewBox="0 0 40 40">
  <defs>
    <style>
      .cls-1 {
        fill: #2196f3;
      }

      .cls-2 {
        fill: #fff;
        fill-rule: evenodd;
      }
    </style>
  </defs>
  <circle id="_10" data-name="10" class="cls-1" cx="20" cy="20" r="20"/>
  <path id="_10-2" data-name="10" class="cls-2" d="M675.492,484.5h-0.363l-7.067,2.531v2.754l4.043-1.254V501.59h3.387V484.5ZM692.52,491.4a8.373,8.373,0,0,0-1.512-5.268,5.865,5.865,0,0,0-8.537.018,8.524,8.524,0,0,0-1.483,5.425v3.141a8.394,8.394,0,0,0,1.512,5.273,5.854,5.854,0,0,0,8.555-.035,8.646,8.646,0,0,0,1.465-5.414V491.4Zm-3.387,3.746a6.408,6.408,0,0,1-.574,2.979,1.9,1.9,0,0,1-1.793.974,1.935,1.935,0,0,1-1.823-1.015,6.559,6.559,0,0,1-.568-3.1v-4.152a5.831,5.831,0,0,1,.6-2.88,1.925,1.925,0,0,1,1.763-.921,1.962,1.962,0,0,1,1.811.968,6.257,6.257,0,0,1,.58,3.091v4.059Z" transform="translate(-660 -473)"/>
</svg>
