<svg id="Label-O" xmlns="http://www.w3.org/2000/svg" width="40" height="40" viewBox="0 0 40 40">
  <defs>
    <style>
      .cls-1 {
        fill: #2196f3;
      }

      .cls-2 {
        fill: #fff;
        fill-rule: evenodd;
      }
    </style>
  </defs>
  <circle id="O" class="cls-1" cx="20" cy="20" r="20"/>
  <path id="O-2" data-name="O" class="cls-2" d="M407.129,257.684a10.223,10.223,0,0,0-.908-4.424,6.764,6.764,0,0,0-2.567-2.942,7.523,7.523,0,0,0-7.582,0,6.761,6.761,0,0,0-2.566,2.942,10.237,10.237,0,0,0-.908,4.435v0.844a10,10,0,0,0,.925,4.354,6.781,6.781,0,0,0,2.579,2.912,7.532,7.532,0,0,0,7.587-.012,6.7,6.7,0,0,0,2.549-2.93,10.294,10.294,0,0,0,.891-4.418v-0.761Zm-3.563.82a7.222,7.222,0,0,1-.961,4.049,3.093,3.093,0,0,1-2.718,1.388,3.124,3.124,0,0,1-2.766-1.441,7.266,7.266,0,0,1-.961-4.055v-0.832a7.1,7.1,0,0,1,.973-4.037,3.394,3.394,0,0,1,5.472.018,7.178,7.178,0,0,1,.961,4.078V258.5Z" transform="translate(-380 -238)"/>
</svg>
