<svg id="Label-S" xmlns="http://www.w3.org/2000/svg" width="40" height="40" viewBox="0 0 40 40">
  <defs>
    <style>
      .cls-1 {
        fill: #2196f3;
      }

      .cls-2 {
        fill: #fff;
        fill-rule: evenodd;
      }
    </style>
  </defs>
  <circle id="S" class="cls-1" cx="20" cy="20" r="20"/>
  <path id="S-2" data-name="S" class="cls-2" d="M52.166,343.537a3.282,3.282,0,0,1-1.957.51q-3.375,0-3.375-2.824H43.307a5.057,5.057,0,0,0,.85,2.906,5.679,5.679,0,0,0,2.467,1.975,8.72,8.72,0,0,0,3.586.72,7.336,7.336,0,0,0,4.512-1.26A4.1,4.1,0,0,0,56.4,342.09a4.456,4.456,0,0,0-1.371-3.328,10.66,10.66,0,0,0-4.371-2.239,9.462,9.462,0,0,1-2.467-1.054,1.646,1.646,0,0,1-.838-1.395,1.718,1.718,0,0,1,.715-1.435,3.237,3.237,0,0,1,2-.545,3.038,3.038,0,0,1,2.074.65,2.3,2.3,0,0,1,.738,1.822H56.4a4.892,4.892,0,0,0-.791-2.742,5.2,5.2,0,0,0-2.221-1.869,7.675,7.675,0,0,0-3.258-.662,8.428,8.428,0,0,0-3.275.609,5.087,5.087,0,0,0-2.238,1.694,4.117,4.117,0,0,0-.779,2.466q0,2.661,2.906,4.231a17.872,17.872,0,0,0,2.895,1.166,9.251,9.251,0,0,1,2.531,1.125,1.8,1.8,0,0,1,.7,1.529A1.658,1.658,0,0,1,52.166,343.537Z" transform="translate(-30 -318)"/>
</svg>
