<svg id="Label-D" xmlns="http://www.w3.org/2000/svg" width="40" height="40" viewBox="0 0 40 40">
  <defs>
    <style>
      .cls-1 {
        fill: #2196f3;
      }

      .cls-2 {
        fill: #fff;
        fill-rule: evenodd;
      }
    </style>
  </defs>
  <circle id="D" class="cls-1" cx="20" cy="20" r="20"/>
  <path id="D-2" data-name="D" class="cls-2" d="M258.885,186.59a8.039,8.039,0,0,0,4.019-1.031,7.007,7.007,0,0,0,2.76-2.871,8.925,8.925,0,0,0,.979-4.231v-0.785a8.892,8.892,0,0,0-1-4.248,7.067,7.067,0,0,0-2.771-2.883,7.97,7.97,0,0,0-4.025-1.014H253.6V186.59h5.285Zm-0.035-14.215A3.8,3.8,0,0,1,262,173.717a6.184,6.184,0,0,1,1.078,3.943v0.9a6.1,6.1,0,0,1-1.113,3.856,3.821,3.821,0,0,1-3.153,1.348h-1.7V172.375h1.735Z" transform="translate(-240 -158)"/>
</svg>
