<svg id="Label-P" xmlns="http://www.w3.org/2000/svg" width="40" height="40" viewBox="0 0 40 40">
  <defs>
    <style>
      .cls-1 {
        fill: #2196f3;
      }

      .cls-2 {
        fill: #fff;
        fill-rule: evenodd;
      }
    </style>
  </defs>
  <circle id="P" class="cls-1" cx="20" cy="20" r="20"/>
  <path id="P-2" data-name="P" class="cls-2" d="M470.256,260.578a7.151,7.151,0,0,0,4.752-1.447,4.9,4.9,0,0,0,1.717-3.955,5.564,5.564,0,0,0-.786-2.947,5.176,5.176,0,0,0-2.244-2,7.708,7.708,0,0,0-3.381-.7h-6.656V266.59h3.516v-6.012h3.082Zm-3.082-8.2H470.4a2.76,2.76,0,0,1,2.04.8,2.815,2.815,0,0,1,.738,2.027,2.383,2.383,0,0,1-.733,1.875,3.085,3.085,0,0,1-2.127.656h-3.14v-5.355Z" transform="translate(-450 -238)"/>
</svg>
