<svg id="Label-5" xmlns="http://www.w3.org/2000/svg" width="40" height="40" viewBox="0 0 40 40">
  <defs>
    <style>
      .cls-1 {
        fill: #2196f3;
      }

      .cls-2 {
        fill: #fff;
        fill-rule: evenodd;
      }
    </style>
  </defs>
  <circle id="_5" data-name="5" class="cls-1" cx="20" cy="20" r="20"/>
  <path id="_5-2" data-name="5" class="cls-2" d="M327.35,493.867l0.328-.305a2.935,2.935,0,0,1,1.957-.632,2.625,2.625,0,0,1,2.027.773,3.164,3.164,0,0,1,.715,2.227,3.828,3.828,0,0,1-.621,2.338,2.084,2.084,0,0,1-1.77.826,2.359,2.359,0,0,1-1.67-.592,2.508,2.508,0,0,1-.744-1.658h-3.351a4.8,4.8,0,0,0,.814,2.59,5.1,5.1,0,0,0,2.092,1.763,6.624,6.624,0,0,0,2.871.627,6.24,6.24,0,0,0,3.07-.72,4.917,4.917,0,0,0,2-2.028,6.183,6.183,0,0,0,.7-2.959,6.038,6.038,0,0,0-1.383-4.23,4.919,4.919,0,0,0-3.82-1.512,5.367,5.367,0,0,0-2.567.645l0.422-3.668H335.2v-2.825h-9.562l-0.985,8.672Z" transform="translate(-310 -473)"/>
</svg>
