<svg id="Label-15" xmlns="http://www.w3.org/2000/svg" width="40" height="40" viewBox="0 0 40 40">
  <defs>
    <style>
      .cls-1 {
        fill: #2196f3;
      }

      .cls-2 {
        fill: #fff;
        fill-rule: evenodd;
      }
    </style>
  </defs>
  <circle id="_15" data-name="15" class="cls-1" cx="20" cy="20" r="20"/>
  <path id="_15-2" data-name="15" class="cls-2" d="M325.492,564.5h-0.363l-7.067,2.531v2.754l4.043-1.254V581.59h3.387V564.5Zm8.742,9.363,0.328-.3a2.938,2.938,0,0,1,1.958-.632,2.627,2.627,0,0,1,2.027.773,3.169,3.169,0,0,1,.715,2.227,3.828,3.828,0,0,1-.621,2.338,2.085,2.085,0,0,1-1.77.826,2.359,2.359,0,0,1-1.67-.592,2.5,2.5,0,0,1-.744-1.658h-3.352a4.812,4.812,0,0,0,.815,2.59,5.1,5.1,0,0,0,2.092,1.763,6.621,6.621,0,0,0,2.871.627,6.243,6.243,0,0,0,3.07-.72,4.929,4.929,0,0,0,2-2.028,6.183,6.183,0,0,0,.7-2.959,6.042,6.042,0,0,0-1.382-4.23,4.919,4.919,0,0,0-3.821-1.512,5.363,5.363,0,0,0-2.566.645l0.422-3.668h6.785v-2.825h-9.563l-0.984,8.672Z" transform="translate(-310 -553)"/>
</svg>
