<svg id="Label-13" xmlns="http://www.w3.org/2000/svg" width="40" height="40" viewBox="0 0 40 40">
  <defs>
    <style>
      .cls-1 {
        fill: #2196f3;
      }

      .cls-2 {
        fill: #fff;
        fill-rule: evenodd;
      }
    </style>
  </defs>
  <circle id="_13" data-name="13" class="cls-1" cx="20" cy="20" r="20"/>
  <path id="_13-2" data-name="13" class="cls-2" d="M185.492,564.5h-0.363l-7.067,2.531v2.754l4.043-1.254V581.59h3.387V564.5Zm8.988,9.7h1.793q2.813,0,2.813,2.555a2.2,2.2,0,0,1-.686,1.693,3,3,0,0,1-3.668.029,1.961,1.961,0,0,1-.72-1.57h-3.387a4.4,4.4,0,0,0,1.623,3.563,6.325,6.325,0,0,0,4.178,1.347,6.665,6.665,0,0,0,4.388-1.371,4.49,4.49,0,0,0,1.659-3.644,4.2,4.2,0,0,0-.709-2.438,4.247,4.247,0,0,0-2.151-1.547,4.627,4.627,0,0,0,1.875-1.512,3.585,3.585,0,0,0,.715-2.156,4.419,4.419,0,0,0-1.535-3.568,6.383,6.383,0,0,0-4.242-1.295,6.72,6.72,0,0,0-2.854.6,4.8,4.8,0,0,0-2.015,1.658,4.161,4.161,0,0,0-.721,2.4h3.387a1.7,1.7,0,0,1,.656-1.388,2.5,2.5,0,0,1,1.629-.534,2.382,2.382,0,0,1,1.693.575,2.089,2.089,0,0,1,.615,1.605,2.363,2.363,0,0,1-.621,1.711,2.542,2.542,0,0,1-1.91.645H194.48v2.648Z" transform="translate(-170 -553)"/>
</svg>
