<svg id="Label-3" xmlns="http://www.w3.org/2000/svg" width="40" height="40" viewBox="0 0 40 40">
  <defs>
    <style>
      .cls-1 {
        fill: #2196f3;
      }

      .cls-2 {
        fill: #fff;
        fill-rule: evenodd;
      }
    </style>
  </defs>
  <circle id="_3" data-name="3" class="cls-1" cx="20" cy="20" r="20"/>
  <path id="_3-2" data-name="3" class="cls-2" d="M187.6,494.207h1.793q2.813,0,2.812,2.555a2.2,2.2,0,0,1-.685,1.693,3,3,0,0,1-3.668.029,1.959,1.959,0,0,1-.721-1.57H183.74a4.4,4.4,0,0,0,1.623,3.563,6.325,6.325,0,0,0,4.178,1.347,6.67,6.67,0,0,0,4.389-1.371,4.492,4.492,0,0,0,1.658-3.644,4.2,4.2,0,0,0-.709-2.438,4.248,4.248,0,0,0-2.15-1.547,4.64,4.64,0,0,0,1.875-1.512,3.59,3.59,0,0,0,.714-2.156,4.416,4.416,0,0,0-1.535-3.568,6.379,6.379,0,0,0-4.242-1.3,6.716,6.716,0,0,0-2.853.6,4.793,4.793,0,0,0-2.016,1.658,4.161,4.161,0,0,0-.721,2.4h3.387a1.7,1.7,0,0,1,.656-1.388,2.5,2.5,0,0,1,1.629-.534,2.382,2.382,0,0,1,1.693.575,2.086,2.086,0,0,1,.616,1.6,2.363,2.363,0,0,1-.621,1.711,2.544,2.544,0,0,1-1.911.645h-1.8v2.648Z" transform="translate(-170 -473)"/>
</svg>
