<svg id="Label-R" xmlns="http://www.w3.org/2000/svg" width="40" height="40" viewBox="0 0 40 40">
  <defs>
    <style>
      .cls-1 {
        fill: #2196f3;
      }

      .cls-2 {
        fill: #fff;
        fill-rule: evenodd;
      }
    </style>
  </defs>
  <circle id="R" class="cls-1" cx="20" cy="20" r="20"/>
  <path id="R-2" data-name="R" class="cls-2" d="M613.256,266.59h3.773v-0.164l-3.691-6.973a5.16,5.16,0,0,0,2.291-1.857,5.25,5.25,0,0,0,.756-2.912,4.65,4.65,0,0,0-1.641-3.809,7.169,7.169,0,0,0-4.664-1.348h-6.34V266.59h3.516v-6.246h2.8Zm-6-14.215h2.824a2.854,2.854,0,0,1,2.1.691,2.579,2.579,0,0,1,.685,1.9,2.408,2.408,0,0,1-.726,1.857,2.9,2.9,0,0,1-2.051.674h-2.836v-5.121Z" transform="translate(-590 -238)"/>
</svg>
