<svg id="Label-B" xmlns="http://www.w3.org/2000/svg" width="40" height="40" viewBox="0 0 40 40">
  <defs>
    <style>
      .cls-1 {
        fill: #2196f3;
      }

      .cls-2 {
        fill: #fff;
        fill-rule: evenodd;
      }
    </style>
  </defs>
  <circle id="B" class="cls-1" cx="20" cy="20" r="20"/>
  <path id="B-2" data-name="B" class="cls-2" d="M120.373,186.59a7.073,7.073,0,0,0,4.477-1.289,4.506,4.506,0,0,0,1.57-3.727,3.913,3.913,0,0,0-.756-2.437,3.6,3.6,0,0,0-2.068-1.325,3.72,3.72,0,0,0,1.793-1.4,3.86,3.86,0,0,0,.644-2.209,4.067,4.067,0,0,0-1.605-3.486,7.849,7.849,0,0,0-4.711-1.19H113.74V186.59h6.633Zm0.106-7.43a2.143,2.143,0,0,1,2.425,2.379,2.03,2.03,0,0,1-.7,1.635,2.908,2.908,0,0,1-1.939.592h-3.012V179.16h3.223Zm-3.223-6.785h2.461a3.546,3.546,0,0,1,2.127.51,1.96,1.96,0,0,1,.674,1.67q0,2.074-2.661,2.121h-2.6v-4.3Z" transform="translate(-100 -158)"/>
</svg>
