<svg id="Label-16" xmlns="http://www.w3.org/2000/svg" width="40" height="40" viewBox="0 0 40 40">
  <defs>
    <style>
      .cls-1 {
        fill: #2196f3;
      }

      .cls-2 {
        fill: #fff;
        fill-rule: evenodd;
      }
    </style>
  </defs>
  <circle id="_16" data-name="16" class="cls-1" cx="20" cy="20" r="20"/>
  <path id="_16-2" data-name="16" class="cls-2" d="M395.492,564.5h-0.363l-7.067,2.531v2.754l4.043-1.254V581.59h3.387V564.5Zm14.168-.152a8.821,8.821,0,0,0-4.553,1.177,7.7,7.7,0,0,0-3.011,3.293,10.944,10.944,0,0,0-1.049,4.9v1.218a7.276,7.276,0,0,0,1.658,5,5.533,5.533,0,0,0,4.354,1.875,5.924,5.924,0,0,0,2.982-.75,5.166,5.166,0,0,0,2.039-2.1,6.282,6.282,0,0,0,.721-3.012,6.386,6.386,0,0,0-1.313-4.2,4.345,4.345,0,0,0-3.539-1.594,4.61,4.61,0,0,0-3.433,1.383,4.856,4.856,0,0,1,1.681-3.223,5.749,5.749,0,0,1,3.7-1.2h0.328v-2.789H409.66Zm-0.914,9.408a4.034,4.034,0,0,1,.006,4.474,2.135,2.135,0,0,1-1.764.86,2.161,2.161,0,0,1-1.875-.953,4.565,4.565,0,0,1-.668-2.65v-1.029a2.572,2.572,0,0,1,.985-1.129,2.709,2.709,0,0,1,1.488-.427A2.215,2.215,0,0,1,408.746,573.76Z" transform="translate(-380 -553)"/>
</svg>
