<svg id="Label-G" xmlns="http://www.w3.org/2000/svg" width="40" height="40" viewBox="0 0 40 40">
  <defs>
    <style>
      .cls-1 {
        fill: #2196f3;
      }

      .cls-2 {
        fill: #fff;
        fill-rule: evenodd;
      }
    </style>
  </defs>
  <circle id="G" class="cls-1" cx="20" cy="20" r="20"/>
  <path id="G-2" data-name="G" class="cls-2" d="M476.725,177.625H470.01v2.59h3.2v2.941a3.9,3.9,0,0,1-2.824.844,3.492,3.492,0,0,1-2.989-1.371,6.752,6.752,0,0,1-1.019-4.055v-1.09a7.085,7.085,0,0,1,.949-4.007,3.116,3.116,0,0,1,2.731-1.348,3.316,3.316,0,0,1,2.209.68,3.406,3.406,0,0,1,1.037,2.144h3.422a6.184,6.184,0,0,0-2.028-4.213,8.182,8.182,0,0,0-8.549-.457,6.371,6.371,0,0,0-2.484,2.86,10.49,10.49,0,0,0-.861,4.423v1.161a9.877,9.877,0,0,0,.931,4.324,6.451,6.451,0,0,0,2.578,2.806,7.614,7.614,0,0,0,3.885.967,11.235,11.235,0,0,0,3.844-.627,6.112,6.112,0,0,0,2.684-1.763v-6.809Z" transform="translate(-450 -158)"/>
</svg>
