<svg id="Label-8" xmlns="http://www.w3.org/2000/svg" width="40" height="40" viewBox="0 0 40 40">
  <defs>
    <style>
      .cls-1 {
        fill: #2196f3;
      }

      .cls-2 {
        fill: #fff;
        fill-rule: evenodd;
      }
    </style>
  </defs>
  <circle id="_8" data-name="8" class="cls-1" cx="20" cy="20" r="20"/>
  <path id="_8-2" data-name="8" class="cls-2" d="M543.812,485.576a6.684,6.684,0,0,0-7.892.012,4.42,4.42,0,0,0-1.453,3.474,4,4,0,0,0,.615,2.2,4.433,4.433,0,0,0,1.705,1.535,4.861,4.861,0,0,0-1.957,1.64,4.257,4.257,0,0,0-.726,2.473,4.461,4.461,0,0,0,1.558,3.586,7.379,7.379,0,0,0,8.426.006,4.473,4.473,0,0,0,1.547-3.592,4.222,4.222,0,0,0-.727-2.467,4.944,4.944,0,0,0-1.969-1.646,4.473,4.473,0,0,0,1.711-1.535,3.971,3.971,0,0,0,.621-2.2A4.406,4.406,0,0,0,543.812,485.576Zm-2.2,12.873a2.642,2.642,0,0,1-3.486-.023,2.778,2.778,0,0,1,.012-3.545,2.579,2.579,0,0,1,3.457.006A2.813,2.813,0,0,1,541.609,498.449Zm-0.246-7.582a2.086,2.086,0,0,1-2.97,0,2.446,2.446,0,0,1-.528-1.64,2.33,2.33,0,0,1,.528-1.618,2.143,2.143,0,0,1,2.964.018,2.343,2.343,0,0,1,.528,1.6A2.465,2.465,0,0,1,541.363,490.867Z" transform="translate(-520 -473)"/>
</svg>
