<svg id="Label-6" xmlns="http://www.w3.org/2000/svg" width="40" height="40" viewBox="0 0 40 40">
  <defs>
    <style>
      .cls-1 {
        fill: #2196f3;
      }

      .cls-2 {
        fill: #fff;
        fill-rule: evenodd;
      }
    </style>
  </defs>
  <circle id="_6" data-name="6" class="cls-1" cx="20" cy="20" r="20"/>
  <path id="_6-2" data-name="6" class="cls-2" d="M402.775,484.352a8.818,8.818,0,0,0-4.552,1.177,7.691,7.691,0,0,0-3.012,3.293,10.958,10.958,0,0,0-1.049,4.9v1.218a7.28,7.28,0,0,0,1.658,5,5.534,5.534,0,0,0,4.354,1.875,5.924,5.924,0,0,0,2.982-.75,5.166,5.166,0,0,0,2.039-2.1,6.282,6.282,0,0,0,.721-3.012,6.391,6.391,0,0,0-1.312-4.195,4.347,4.347,0,0,0-3.54-1.594,4.612,4.612,0,0,0-3.433,1.383,4.856,4.856,0,0,1,1.681-3.223,5.749,5.749,0,0,1,3.7-1.195h0.328v-2.789h-0.563Zm-0.914,9.408a4.034,4.034,0,0,1,.006,4.474,2.135,2.135,0,0,1-1.763.86,2.159,2.159,0,0,1-1.875-.953,4.557,4.557,0,0,1-.668-2.65v-1.029a2.57,2.57,0,0,1,.984-1.129,2.709,2.709,0,0,1,1.488-.427A2.215,2.215,0,0,1,401.861,493.76Z" transform="translate(-380 -473)"/>
</svg>
