<svg id="Label-18" xmlns="http://www.w3.org/2000/svg" width="40" height="40" viewBox="0 0 40 40">
  <defs>
    <style>
      .cls-1 {
        fill: #2196f3;
      }

      .cls-2 {
        fill: #fff;
        fill-rule: evenodd;
      }
    </style>
  </defs>
  <circle id="_18" data-name="18" class="cls-1" cx="20" cy="20" r="20"/>
  <path id="_18-2" data-name="18" class="cls-2" d="M535.492,564.5h-0.363l-7.067,2.531v2.754l4.043-1.254V581.59h3.387V564.5Zm15.205,1.072a6.684,6.684,0,0,0-7.892.012,4.42,4.42,0,0,0-1.453,3.474,4,4,0,0,0,.615,2.2,4.426,4.426,0,0,0,1.705,1.535,4.861,4.861,0,0,0-1.957,1.64,4.25,4.25,0,0,0-.727,2.473,4.462,4.462,0,0,0,1.559,3.586,7.379,7.379,0,0,0,8.426.006,4.473,4.473,0,0,0,1.547-3.592,4.23,4.23,0,0,0-.727-2.467,4.951,4.951,0,0,0-1.969-1.646,4.473,4.473,0,0,0,1.711-1.535,3.971,3.971,0,0,0,.621-2.2A4.406,4.406,0,0,0,550.7,565.576Zm-2.2,12.873a2.642,2.642,0,0,1-3.486-.023,2.778,2.778,0,0,1,.012-3.545,2.579,2.579,0,0,1,3.457.006A2.813,2.813,0,0,1,548.494,578.449Zm-0.246-7.582a1.828,1.828,0,0,1-1.482.621,1.847,1.847,0,0,1-1.489-.621,2.451,2.451,0,0,1-.527-1.64,2.335,2.335,0,0,1,.527-1.618,2.145,2.145,0,0,1,2.965.018,2.343,2.343,0,0,1,.528,1.6A2.465,2.465,0,0,1,548.248,570.867Z" transform="translate(-520 -553)"/>
</svg>
