<svg id="Label-19" xmlns="http://www.w3.org/2000/svg" width="40" height="40" viewBox="0 0 40 40">
  <defs>
    <style>
      .cls-1 {
        fill: #2196f3;
      }

      .cls-2 {
        fill: #fff;
        fill-rule: evenodd;
      }
    </style>
  </defs>
  <circle id="_19" data-name="19" class="cls-1" cx="20" cy="20" r="20"/>
  <path id="_19-2" data-name="19" class="cls-2" d="M605.492,564.5h-0.363l-7.067,2.531v2.754l4.043-1.254V581.59h3.387V564.5Zm8.684,14.414-0.75.012v2.824l0.832-.012a8.019,8.019,0,0,0,6.012-2.6,9.876,9.876,0,0,0,2.121-6.7v-1.254a8.706,8.706,0,0,0-.739-3.622,5.544,5.544,0,0,0-2.039-2.425,5.422,5.422,0,0,0-3-.844,5.677,5.677,0,0,0-2.953.779,5.372,5.372,0,0,0-2.045,2.18,6.54,6.54,0,0,0-.732,3.076,6.14,6.14,0,0,0,1.359,4.19,4.573,4.573,0,0,0,3.621,1.552,4.277,4.277,0,0,0,3.094-1.3q-0.363,3.948-4.781,4.148h0Zm0.72-6.334a3.86,3.86,0,0,1-.638-2.291,3.957,3.957,0,0,1,.656-2.338,1.978,1.978,0,0,1,1.676-.932,2.038,2.038,0,0,1,1.758.95,4.658,4.658,0,0,1,.656,2.672v1.394a2.818,2.818,0,0,1-.9,1.02,2.368,2.368,0,0,1-1.412.421A2.08,2.08,0,0,1,614.9,572.584Z" transform="translate(-590 -553)"/>
</svg>
