<svg id="Label-12" xmlns="http://www.w3.org/2000/svg" width="40" height="40" viewBox="0 0 40 40">
  <defs>
    <style>
      .cls-1 {
        fill: #2196f3;
      }

      .cls-2 {
        fill: #fff;
        fill-rule: evenodd;
      }
    </style>
  </defs>
  <circle id="_12" data-name="12" class="cls-1" cx="20" cy="20" r="20"/>
  <path id="_12-2" data-name="12" class="cls-2" d="M115.492,564.5h-0.363l-7.067,2.531v2.754l4.043-1.254V581.59h3.387V564.5Zm17.238,14.355H125.4l3.878-4.089a14.292,14.292,0,0,0,2.25-3.059,5.73,5.73,0,0,0,.657-2.578,4.478,4.478,0,0,0-1.459-3.574,6.054,6.054,0,0,0-4.1-1.266,6.4,6.4,0,0,0-3.082.732,5.255,5.255,0,0,0-2.1,2.022,5.6,5.6,0,0,0-.744,2.848h3.4a3.133,3.133,0,0,1,.662-2.081,2.236,2.236,0,0,1,1.81-.791,2.073,2.073,0,0,1,1.641.651,2.6,2.6,0,0,1,.574,1.787,3.475,3.475,0,0,1-.545,1.758,13.641,13.641,0,0,1-1.681,2.168l-5.52,5.883v2.32H132.73v-2.731Z" transform="translate(-100 -553)"/>
</svg>
