<svg id="Label-2" xmlns="http://www.w3.org/2000/svg" width="40" height="40" viewBox="0 0 40 40">
  <defs>
    <style>
      .cls-1 {
        fill: #2196f3;
      }

      .cls-2 {
        fill: #fff;
        fill-rule: evenodd;
      }
    </style>
  </defs>
  <circle id="_2" data-name="2" class="cls-1" cx="20" cy="20" r="20"/>
  <path id="_2-2" data-name="2" class="cls-2" d="M125.846,498.859H118.51l3.879-4.089a14.361,14.361,0,0,0,2.25-3.059,5.742,5.742,0,0,0,.656-2.578,4.475,4.475,0,0,0-1.459-3.574,6.054,6.054,0,0,0-4.1-1.266,6.4,6.4,0,0,0-3.082.732,5.253,5.253,0,0,0-2.1,2.022,5.585,5.585,0,0,0-.744,2.848h3.4a3.138,3.138,0,0,1,.662-2.081,2.236,2.236,0,0,1,1.811-.791,2.072,2.072,0,0,1,1.64.651,2.6,2.6,0,0,1,.574,1.787,3.483,3.483,0,0,1-.544,1.758,13.656,13.656,0,0,1-1.682,2.168l-5.52,5.883v2.32h11.7v-2.731Z" transform="translate(-100 -473)"/>
</svg>
