<svg id="Label-Q" xmlns="http://www.w3.org/2000/svg" width="40" height="40" viewBox="0 0 40 40">
  <defs>
    <style>
      .cls-1 {
        fill: #2196f3;
      }

      .cls-2 {
        fill: #fff;
        fill-rule: evenodd;
      }
    </style>
  </defs>
  <circle id="Q" class="cls-1" cx="20" cy="20" r="20"/>
  <path id="Q-2" data-name="Q" class="cls-2" d="M547.105,257.684a10.209,10.209,0,0,0-.908-4.424,6.761,6.761,0,0,0-2.566-2.942,7.523,7.523,0,0,0-7.582,0,6.764,6.764,0,0,0-2.567,2.942,10.251,10.251,0,0,0-.908,4.435v0.844a10.015,10.015,0,0,0,.926,4.354,6.778,6.778,0,0,0,2.578,2.912,7.1,7.1,0,0,0,3.785,1.019,7.716,7.716,0,0,0,1.289-.105l3.633,2.918,2.238-1.981-2.835-2.226a7.133,7.133,0,0,0,2.144-2.83,10.277,10.277,0,0,0,.773-4.155v-0.761Zm-3.562.82a7.23,7.23,0,0,1-.961,4.049,3.365,3.365,0,0,1-5.484-.053,7.266,7.266,0,0,1-.961-4.055v-0.832a7.1,7.1,0,0,1,.972-4.037,3.394,3.394,0,0,1,5.473.018,7.178,7.178,0,0,1,.961,4.078V258.5Z" transform="translate(-520 -238)"/>
</svg>
