<svg id="Label-20" xmlns="http://www.w3.org/2000/svg" width="40" height="40" viewBox="0 0 40 40">
  <defs>
    <style>
      .cls-1 {
        fill: #2196f3;
      }

      .cls-2 {
        fill: #fff;
        fill-rule: evenodd;
      }
    </style>
  </defs>
  <circle id="_20" data-name="20" class="cls-1" cx="20" cy="20" r="20"/>
  <path id="_20-2" data-name="20" class="cls-2" d="M678.961,578.859h-7.336l3.879-4.089a14.361,14.361,0,0,0,2.25-3.059,5.742,5.742,0,0,0,.656-2.578,4.475,4.475,0,0,0-1.459-3.574,6.052,6.052,0,0,0-4.1-1.266,6.4,6.4,0,0,0-3.082.732,5.253,5.253,0,0,0-2.1,2.022,5.6,5.6,0,0,0-.744,2.848h3.4a3.138,3.138,0,0,1,.662-2.081,2.238,2.238,0,0,1,1.811-.791,2.073,2.073,0,0,1,1.641.651,2.609,2.609,0,0,1,.574,1.787,3.485,3.485,0,0,1-.545,1.758,13.6,13.6,0,0,1-1.682,2.168l-5.519,5.883v2.32h11.7v-2.731ZM692.52,571.4a8.373,8.373,0,0,0-1.512-5.268,5.865,5.865,0,0,0-8.537.018,8.524,8.524,0,0,0-1.483,5.425v3.141a8.394,8.394,0,0,0,1.512,5.273,5.854,5.854,0,0,0,8.555-.035,8.646,8.646,0,0,0,1.465-5.414V571.4Zm-3.387,3.746a6.408,6.408,0,0,1-.574,2.979,1.9,1.9,0,0,1-1.793.974,1.935,1.935,0,0,1-1.823-1.015,6.559,6.559,0,0,1-.568-3.1v-4.152a5.831,5.831,0,0,1,.6-2.88,1.925,1.925,0,0,1,1.763-.921,1.962,1.962,0,0,1,1.811.968,6.257,6.257,0,0,1,.58,3.091v4.059Z" transform="translate(-660 -553)"/>
</svg>
