<svg id="Label-C" xmlns="http://www.w3.org/2000/svg" width="40" height="40" viewBox="0 0 40 40">
  <defs>
    <style>
      .cls-1 {
        fill: #2196f3;
      }

      .cls-2 {
        fill: #fff;
        fill-rule: evenodd;
      }
    </style>
  </defs>
  <circle id="C" class="cls-1" cx="20" cy="20" r="20"/>
  <path id="C-2" data-name="C" class="cls-2" d="M193.426,180.906a3.362,3.362,0,0,1-.92,2.3,3.472,3.472,0,0,1-2.432.744,2.931,2.931,0,0,1-2.642-1.277,7.553,7.553,0,0,1-.838-4.043v-1.289a7.052,7.052,0,0,1,.9-3.908,2.987,2.987,0,0,1,2.631-1.26,3.406,3.406,0,0,1,2.408.744,3.56,3.56,0,0,1,.92,2.4h3.516a6.491,6.491,0,0,0-2.086-4.441,7.746,7.746,0,0,0-8.5-.58,6.507,6.507,0,0,0-2.479,2.877,10.229,10.229,0,0,0-.867,4.336v1.043a9.055,9.055,0,0,0,1.881,6.064,6.42,6.42,0,0,0,5.162,2.209,7.14,7.14,0,0,0,4.834-1.582,6.036,6.036,0,0,0,2.033-4.336h-3.515Z" transform="translate(-170 -158)"/>
</svg>
